# xmcd
#
# Track frame offsets: 
#        150
#        18793
#        33610
#        53832
#        73246
#        90483
#        106682
#        122219
#        135980
#        158112
#        176248
#        196078
#        220203
#        238833
#        254290
#
# Disc length: 3588 seconds
#
# Revision: 0
# Processed by: cddbd v1.5.2PL0 Copyright (c) Steve Scherf et al.
# Submitted via: ExactAudioCopy v0.95b4
#
DISCID=cc0e020f
DTITLE=J.Martins - Get Serious
DYEAR=1900
DGENRE=Hip-hop
TTITLE0=Good Or Bad ft.Timaya
TTITLE1=Swagger Dance
TTITLE2=Cool Temper
TTITLE3=Stay With Me
TTITLE4=Money Good ft. 9ice
TTITLE5=U Say Ur Love.Remix ft.Psquare
TTITLE6=Get The Vibe
TTITLE7=So Fly
TTITLE8=Think Twice ft.Busta,Ester
TTITLE9=Good Loveing
TTITLE10=Am Real ft.Sugar Boy
TTITLE11=Swagger Dance ft.Sugar Boy
TTITLE12=Good Or Bad (instrumental)
TTITLE13=Money Good (instrumental)
TTITLE14=Get The Vibe (instrumental)
EXTD=
EXTT0=
EXTT1=
EXTT2=
EXTT3=
EXTT4=
EXTT5=
EXTT6=
EXTT7=
EXTT8=
EXTT9=
EXTT10=
EXTT11=
EXTT12=
EXTT13=
EXTT14=
PLAYORDER=
